<?xml version="1.0" encoding="utf-8"?>
<!-- Generator: Adobe Illustrator 18.1.1, SVG Export Plug-In . SVG Version: 6.00 Build 0)  -->
<svg version="1.1" xmlns="http://www.w3.org/2000/svg"
             xmlns:xlink="http://www.w3.org/1999/xlink" x="0px" y="0px"
             viewBox="0 0 418 72.9" style="enable-background:new 0 0 418 72.9;"
             xml:space="preserve" preserveAspectRatio="none">
<style type="text/css">
	.st0{fill:#0084A9;}
	.st1{fill:#F26531;}
	.st2{fill:#FFD457;}
</style>
<g>
	<path class="st0" d="M106.7,62.8c0.1,3.9,0.7,5.2,1.7,5.5c0.8,0.3,1.8,0.3,2.6,0.3c0.5,0,0.8,0.1,0.8,0.4c0,0.4-0.4,0.5-1.1,0.5
		c-3.2,0-5.2-0.1-6.2-0.1c-0.4,0-2.8,0.1-5.4,0.1c-0.6,0-1.1,0-1.1-0.5c0-0.3,0.3-0.4,0.8-0.4c0.6,0,1.5,0,2.2-0.2
		c1.3-0.4,1.5-1.8,1.5-6.2l0.4-29.5c0-1,0.2-1.7,0.6-1.7c0.5,0,1,0.6,1.8,1.5c0.6,0.6,8.2,8.8,15.4,16C124.4,52,131.2,59.2,132,60
		h0.2l-0.5-22.4c0-3-0.5-4-1.7-4.5c-0.7-0.3-1.9-0.3-2.6-0.3c-0.6,0-0.8-0.2-0.8-0.5c0-0.4,0.5-0.4,1.3-0.4c2.6,0,5,0.1,6,0.1
		c0.5,0,2.4-0.1,4.9-0.1c0.6,0,1.1,0,1.1,0.4c0,0.3-0.3,0.5-0.9,0.5c-0.5,0-0.9,0-1.5,0.1c-1.4,0.4-1.8,1.4-1.8,4.2l-0.5,31.4
		c0,1.1-0.2,1.5-0.6,1.5c-0.5,0-1.1-0.5-1.7-1.1c-3.1-3-9.5-9.5-14.7-14.6c-5.4-5.4-11-11.6-11.8-12.5h-0.2L106.7,62.8z"/>
	<path class="st0" d="M149.4,50.8c0-8.5,5.6-19.5,20.6-19.5c12.4,0,20.1,7.2,20.1,18.6c0,11.4-8,20.4-20.6,20.4
		C155.2,70.3,149.4,59.6,149.4,50.8z M183.1,51.7c0-11.2-6.4-18.1-14.6-18.1c-5.7,0-12.2,3.2-12.2,15.6c0,10.4,5.7,18.6,15.3,18.6
		C175.1,67.8,183.1,66.1,183.1,51.7z"/>
	<path class="st0" d="M200.6,36.8c-1.1-2.7-2-3.3-3.8-3.8c-0.7-0.2-1.5-0.2-1.9-0.2c-0.4,0-0.6-0.2-0.6-0.5c0-0.4,0.5-0.4,1.3-0.4
		c2.6,0,5.5,0.1,7.2,0.1c1.2,0,3.6-0.1,6.1-0.1c0.6,0,1.1,0.1,1.1,0.4c0,0.3-0.3,0.5-0.7,0.5c-0.8,0-1.5,0-1.9,0.3
		c-0.3,0.2-0.5,0.6-0.5,1c0,0.6,0.4,2,1.1,3.8l8.6,22.6h0.2c2.1-5.5,8.6-21.5,9.8-24.8c0.2-0.7,0.4-1.4,0.4-1.8
		c0-0.4-0.2-0.8-0.6-0.9c-0.6-0.2-1.3-0.2-2-0.2c-0.4,0-0.8-0.1-0.8-0.4c0-0.4,0.4-0.5,1.4-0.5c2.5,0,4.6,0.1,5.2,0.1
		c0.8,0,3.2-0.1,4.7-0.1c0.6,0,1,0.1,1,0.4c0,0.3-0.3,0.5-0.8,0.5c-0.5,0-1.5,0-2.4,0.6c-0.6,0.4-1.4,1.3-2.7,4.5
		c-1.9,4.7-3.3,7.4-6,13.5c-3.2,7.3-5.5,12.7-6.6,15.2c-1.3,2.9-1.6,3.7-2.3,3.7c-0.6,0-0.9-0.7-1.9-3L200.6,36.8z"/>
	<path class="st0" d="M246.7,56.6c-0.2,0-0.3,0.1-0.4,0.4l-2.7,7.1c-0.5,1.2-0.7,2.4-0.7,3c0,0.9,0.4,1.5,2,1.5h0.7
		c0.6,0,0.7,0.1,0.7,0.4c0,0.4-0.3,0.5-0.8,0.5c-1.6,0-3.7-0.1-5.3-0.1c-0.5,0-3.3,0.1-5.9,0.1c-0.6,0-0.9-0.1-0.9-0.5
		c0-0.3,0.2-0.4,0.6-0.4c0.5,0,1.1,0,1.5-0.1c2.3-0.3,3.2-2,4.2-4.5l12.5-31.3c0.6-1.4,0.9-2,1.4-2c0.4,0,0.7,0.5,1.2,1.6
		c1.2,2.7,9.2,23.1,12.3,30.6c1.9,4.5,3.3,5.2,4.4,5.4c0.7,0.2,1.5,0.2,2.1,0.2c0.4,0,0.6,0.1,0.6,0.4c0,0.4-0.5,0.5-2.3,0.5
		c-1.8,0-5.4,0-9.4-0.1c-0.9-0.1-1.5-0.1-1.5-0.4c0-0.3,0.2-0.4,0.7-0.4c0.3-0.1,0.7-0.5,0.4-1.1l-4-10.5c-0.1-0.2-0.2-0.4-0.5-0.4
		H246.7z M256.8,54.1c0.2,0,0.3-0.1,0.2-0.3l-4.5-12.3c-0.1-0.2-0.1-0.5-0.2-0.5c-0.1,0-0.2,0.2-0.3,0.5l-4.6,12.2
		c-0.1,0.2,0,0.3,0.2,0.3H256.8z"/>
	<path class="st0" d="M286.1,46.4c0-7.6,0-9-0.1-10.6c-0.1-1.7-0.5-2.5-2.1-2.8c-0.4-0.1-1.2-0.1-1.9-0.1c-0.5,0-0.8-0.1-0.8-0.5
		c0-0.3,0.4-0.4,1.1-0.4c2.6,0,5.8,0.1,6.8,0.1c1.7,0,5.5-0.1,7-0.1c3.1,0,6.5,0.3,9.2,2.1c1.4,0.9,3.4,3.5,3.4,6.8
		c0,3.7-1.5,7.1-6.6,11.1c4.4,5.6,7.9,10,10.8,13.1c2.8,2.9,4.8,3.2,5.6,3.4c0.5,0.1,1,0.1,1.4,0.1c0.4,0,0.6,0.2,0.6,0.4
		c0,0.4-0.4,0.5-0.9,0.5h-4.7c-2.8,0-4-0.2-5.3-0.9c-2.1-1.1-4-3.5-6.8-7.3c-2-2.7-4.3-6.1-4.9-6.9c-0.2-0.3-0.5-0.4-0.9-0.4
		l-4.3-0.1c-0.2,0-0.4,0.1-0.4,0.4v0.7c0,4.6,0,8.6,0.2,10.7c0.1,1.4,0.4,2.5,1.9,2.7c0.7,0.1,1.8,0.2,2.4,0.2
		c0.4,0,0.6,0.2,0.6,0.4c0,0.3-0.3,0.5-1,0.5c-2.9,0-6.6-0.1-7.3-0.1c-0.9,0-4.1,0.1-6.1,0.1c-0.6,0-1-0.1-1-0.5
		c0-0.2,0.2-0.4,0.8-0.4c0.7,0,1.3-0.1,1.8-0.2c1-0.2,1.2-1.3,1.4-2.7c0.3-2.1,0.3-6,0.3-10.6V46.4z M291.9,50.3
		c0,0.5,0.1,0.7,0.4,0.9c1,0.4,2.5,0.5,3.8,0.5c2,0,2.6-0.2,3.5-0.8c1.5-1.1,2.9-3.4,2.9-7.5c0-7.1-4.7-9.1-7.6-9.1
		c-1.2,0-2.1,0-2.6,0.2c-0.3,0.1-0.4,0.3-0.4,0.7V50.3z"/>
	<path class="st0" d="M336.2,34.8l-7.4,0.2c-2.9,0.1-4.1,0.4-4.8,1.4c-0.5,0.7-0.7,1.3-0.8,1.7c-0.1,0.4-0.3,0.6-0.6,0.6
		c-0.3,0-0.4-0.2-0.4-0.8c0-0.8,0.9-5.3,1-5.7c0.1-0.6,0.3-0.9,0.6-0.9c0.4,0,0.9,0.5,2.1,0.6c1.4,0.1,3.3,0.2,5,0.2h19.7
		c3.2,0,4.4-0.5,4.8-0.5c0.4,0,0.4,0.3,0.4,1c0,1-0.1,4.5-0.1,5.8c0,0.5-0.1,0.8-0.4,0.8c-0.4,0-0.5-0.2-0.6-1l0-0.5
		c-0.1-1.3-1.4-2.7-5.9-2.8l-6.3-0.1v20.4c0,4.6,0,8.5,0.3,10.7c0.1,1.4,0.4,2.5,1.9,2.7c0.7,0.1,1.8,0.2,2.5,0.2
		c0.5,0,0.8,0.2,0.8,0.4c0,0.3-0.4,0.5-0.9,0.5c-3.3,0-6.4-0.1-7.8-0.1c-1.1,0-4.3,0.1-6.3,0.1c-0.6,0-1-0.1-1-0.5
		c0-0.2,0.2-0.4,0.8-0.4c0.7,0,1.3-0.1,1.8-0.2c1-0.2,1.3-1.3,1.4-2.7c0.2-2.1,0.2-6,0.2-10.6V34.8z"/>
	<path class="st0" d="M372.2,46.4c0-7.6,0-9-0.1-10.6c-0.1-1.7-0.6-2.5-1.7-2.8c-0.5-0.1-1.2-0.2-1.8-0.2c-0.5,0-0.8-0.1-0.8-0.5
		c0-0.3,0.4-0.4,1.2-0.4c1.9,0,5,0.1,6.5,0.1c1.2,0,4.2-0.1,6.1-0.1c0.6,0,1,0.1,1,0.4c0,0.4-0.3,0.5-0.8,0.5c-0.5,0-0.9,0-1.5,0.1
		c-1.3,0.2-1.7,1.1-1.8,2.8c-0.1,1.6-0.1,3-0.1,10.6v8.8c0,4.8,0,8.8,0.2,10.9c0.2,1.3,0.5,2.2,2,2.4c0.7,0.1,1.8,0.2,2.5,0.2
		c0.5,0,0.8,0.2,0.8,0.4c0,0.3-0.4,0.5-0.9,0.5c-3.3,0-6.4-0.1-7.8-0.1c-1.1,0-4.3,0.1-6.3,0.1c-0.7,0-1-0.1-1-0.5
		c0-0.2,0.2-0.4,0.8-0.4c0.7,0,1.3-0.1,1.8-0.2c1-0.2,1.3-1,1.4-2.5c0.2-2.1,0.2-6,0.2-10.9V46.4z"/>
	<path class="st0" d="M398.1,69c-0.8-0.3-0.9-0.6-0.9-1.7c0-2.7,0.2-5.7,0.2-6.5c0.1-0.7,0.2-1.3,0.6-1.3c0.4,0,0.5,0.5,0.5,0.8
		c0,0.7,0.2,1.7,0.4,2.5c1.1,3.7,4,5,7.1,5c4.5,0,6.7-3,6.7-5.7c0-2.4-0.7-4.8-4.9-8l-2.3-1.8c-5.5-4.3-7.4-7.8-7.4-11.8
		c0-5.5,4.6-9.4,11.5-9.4c3.2,0,5.3,0.5,6.6,0.8c0.5,0.1,0.7,0.2,0.7,0.6c0,0.6-0.2,2.1-0.2,6c0,1.1-0.1,1.5-0.6,1.5
		c-0.3,0-0.5-0.3-0.5-0.9c0-0.4-0.2-2-1.3-3.3c-0.7-0.9-2.2-2.4-5.4-2.4c-3.7,0-5.9,2.1-5.9,5.1c0,2.3,1.1,4,5.3,7.2l1.4,1
		c6,4.6,8.2,8,8.2,12.7c0,2.9-1.1,6.3-4.7,8.7c-2.5,1.6-5.3,2-7.9,2C402.5,70.3,400.3,70,398.1,69z"/>
	<g>
		<path class="st1" d="M30.4,72.9C2.8,70.8-5.6,54.9,3.6,37c5-9.6,12.6-20,3.5-29.6c-0.2-0.3,0-0.5,0.3-0.3
			c20.7,8.2,9.9,24.9,6.4,31.8c-7,13.6-2.5,30.1,16.5,33.6C30.8,72.6,30.8,72.9,30.4,72.9z"/>
		<path class="st0" d="M34.1,57.8L38.7,0l-11,0l5.9,57.8C33.7,58.1,34,58.1,34.1,57.8z"/>
		<path class="st2" d="M46.6,28.7c6.8,5.4,17.9,35.2-9.2,43.8c-0.4,0.1-0.4,0.4,0,0.4c43.2-5.4,28.4-36.4,9.6-44.6
			C46.4,28.1,46.2,28.4,46.6,28.7z"/>
	</g>
</g>
</svg>
